<mxfile host="app.diagrams.net" modified="2024-02-06T18:09:09.369Z" agent="Mozilla/5.0 (X11; CrOS x86_64 14541.0.0) AppleWebKit/537.36 (KHTML, like Gecko) Chrome/118.0.0.0 Safari/537.36" version="23.1.1" etag="RbZfrXh_R9XM2pDwoC3D" type="github">
  <diagram name="Page-1" id="7c5wCAIq6_jUsfaGA14G">
    <mxGraphModel>
      <root>
        <mxCell id="0" />
        <mxCell id="1" parent="0" />
      </root>
    </mxGraphModel>
  </diagram>
</mxfile>
